<svg width="32" height="32" viewBox="0 0 32 32" fill="none" xmlns="http://www.w3.org/2000/svg">
<circle cx="16" cy="16" r="16" fill="white"/>
<circle cx="16" cy="16" r="15.5" stroke="#101010" stroke-opacity="0.13"/>
<path fill-rule="evenodd" clip-rule="evenodd" d="M16.3942 7.2159C16.5779 6.96134 16.9056 6.92694 17.126 7.13908L22.6992 12.5025C23.2965 13.0773 22.9446 14.2 22.167 14.2H9.51956C9.23261 14.2 9 13.9314 9 13.6C9 13.2686 9.23261 13 9.51956 13H21.593L16.4608 8.06095C16.2403 7.84881 16.2105 7.47047 16.3942 7.2159Z" fill="#00B8F5"/>
<path fill-rule="evenodd" clip-rule="evenodd" d="M15.6058 24.7841C15.4221 25.0387 15.0944 25.0731 14.874 24.8609L9.30077 19.4975C8.70347 18.9227 9.05544 17.8 9.83295 17.8H22.4804C22.7674 17.8 23 18.0686 23 18.4C23 18.7314 22.7674 19 22.4804 19H10.407L15.5392 23.9391C15.7597 24.1512 15.7895 24.5295 15.6058 24.7841Z" fill="#00B8F5"/>
</svg>
